HIERARCHY
ROOT hip
{
	OFFSET 0.000000 0.000000 0.000000 
	CHANNELS 6 Xposition Yposition Zposition Xrotation Zrotation Yrotation
	JOINT abdomen
	{
		OFFSET 0.000000 3.402643 0.000000 
		CHANNELS 3 Xrotation Zrotation Yrotation
		JOINT chest
		{
			OFFSET 0.000000 8.438565 -0.680529 
			CHANNELS 3 Xrotation Zrotation Yrotation
			JOINT neck
			{
				OFFSET 0.000000 10.207942 -0.272212 
				CHANNELS 3 Xrotation Zrotation Yrotation
				JOINT head
				{
					OFFSET 0.000000 3.130431 0.000000 
					CHANNELS 3 Xrotation Zrotation Yrotation
					End Site
					{
						OFFSET 0.000000 3.130435 0.000000 
					}
				}
			}
			JOINT lCollar
			{
				OFFSET 3.470700 6.669187 -0.816635 
				CHANNELS 3 Yrotation Zrotation Xrotation
				JOINT lShldr
				{
					OFFSET 3.198488 0.000000 0.000000 
					CHANNELS 3 Zrotation Yrotation Xrotation
					JOINT lForeArm
					{
						OFFSET 10.139888 0.000000 0.000000 
						CHANNELS 3 Yrotation Zrotation Xrotation
						JOINT lHand
						{
							OFFSET 8.370511 0.000000 0.000000 
							CHANNELS 3 Zrotation Yrotation Xrotation
							End Site
							{
								OFFSET 4.083176 0.000000 0.000000 
							}
						}
					}
				}
			}
			JOINT rCollar
			{
				OFFSET -3.470700 6.669187 -0.816635 
				CHANNELS 3 Yrotation Zrotation Xrotation
				JOINT rShldr
				{
					OFFSET -3.198488 0.000000 0.000000 
					CHANNELS 3 Zrotation Yrotation Xrotation
					JOINT rForeArm
					{
						OFFSET -10.139888 0.000000 0.000000 
						CHANNELS 3 Yrotation Zrotation Xrotation
						JOINT rHand
						{
							OFFSET -8.370511 0.000000 0.000000 
							CHANNELS 3 Zrotation Yrotation Xrotation
							End Site
							{
								OFFSET -4.083176 0.000000 0.000000 
							}
						}
					}
				}
			}
		}
	}
	JOINT lThigh
	{
		OFFSET 5.308129 -1.633274 1.361059 
		CHANNELS 3 Xrotation Zrotation Yrotation
		JOINT lShin
		{
			OFFSET -2.041588 -20.007561 0.000000 
			CHANNELS 3 Xrotation Zrotation Yrotation
			JOINT lFoot
			{
				OFFSET 0.000000 -19.190928 -1.224953 
				CHANNELS 3 Xrotation Yrotation Zrotation
				End Site
				{
					OFFSET 0.000000 -2.449906 4.627600 
				}
			}
		}
	}
	JOINT rThigh
	{
		OFFSET -5.308129 -1.633274 1.361059 
		CHANNELS 3 Xrotation Zrotation Yrotation
		JOINT rShin
		{
			OFFSET 2.041588 -20.007561 0.000000 
			CHANNELS 3 Xrotation Zrotation Yrotation
			JOINT rFoot
			{
				OFFSET 0.000000 -19.190928 -1.224953 
				CHANNELS 3 Xrotation Yrotation Zrotation
				End Site
				{
					OFFSET 0.000000 -2.449906 4.627600 
				}
			}
		}
	}
}
MOTION
Frames: 11
Frame Time: 0.011111
58.143562 50.115162 96.706963 -8.223615 23.400230 -102.984749 4.092920 -12.491858 9.681338 -24.541140 -1.628559 3.403273 -19.386629 1.761469 1.870049 25.789076 -3.735203 3.488022 -4.148943 -6.307207 -0.011134 -61.335445 -18.886986 -5.969095 -48.849010 7.424737 7.695218 8.524705 12.647240 -0.647841 8.203756 10.988382 -1.689603 57.084949 29.947210 56.964878 78.600510 -7.099982 21.639784 -8.534408 -12.637552 71.136574 -23.944881 10.535912 -17.138224 2.647530 -5.976326 -1.096722 -10.944572 10.364007 -1.363675 -44.596821 -10.605806 24.114136 40.928505 4.589833 6.196394 -27.356640 -4.847083 -0.288543 
58.218777 50.119968 96.438385 -8.092896 23.294571 -102.854820 4.142665 -12.145080 9.639338 -24.531427 -1.814133 3.370388 -19.316065 1.626811 1.880091 26.228014 -3.500152 3.509934 -4.148943 -6.307207 -0.011134 -61.026546 -19.744310 -1.666712 -49.619888 7.609425 7.995741 8.524705 12.647240 -1.956434 8.203756 10.988382 -1.689603 57.723076 29.224382 54.304272 77.023102 -7.674773 20.744608 -8.534408 -12.637552 70.628769 -22.432253 11.345924 -17.348473 -0.122905 -5.950755 -0.701384 -9.673972 10.948363 -1.519598 -44.319439 -10.294152 23.675413 40.928165 4.589855 6.206074 -27.362757 -4.798865 -0.278246 
58.290558 50.127522 96.173241 -7.891282 23.204281 -102.753471 4.177743 -11.683456 9.622972 -24.511969 -2.088140 3.335498 -19.266306 1.548443 1.899835 26.656120 -3.305398 3.564144 -4.148943 -6.307207 -0.011134 -60.603123 -20.582758 2.518566 -50.496948 7.811041 8.349854 8.524705 12.647240 -3.606825 8.203756 10.988382 -1.689603 58.425911 28.560472 51.466618 75.341988 -8.170892 19.826059 -8.534408 -12.637552 70.501816 -22.450453 11.835648 -17.676214 -0.123879 -5.950556 -0.691646 -9.711205 11.309175 -1.470991 -44.035545 -9.855123 23.329788 40.988010 4.580163 6.207807 -27.335596 -4.781865 -0.265806 
58.357185 50.131992 95.911522 -7.629273 23.118881 -102.664993 4.213787 -11.120107 9.597411 -24.463200 -2.383151 3.289078 -19.246944 1.517428 1.932393 27.074125 -3.156278 3.652415 -4.148943 -6.307207 -0.011134 -60.135117 -21.378574 6.512881 -51.502251 8.030462 8.762228 8.524705 12.647240 -5.628309 8.203756 10.988382 -1.689603 59.117058 27.964724 48.496937 73.546722 -8.595814 18.883722 -8.534408 -12.637552 70.599472 -22.421423 12.390498 -17.964199 -0.132154 -5.950788 -0.710257 -9.748033 11.656466 -1.439232 -43.767822 -9.316504 23.088593 41.056492 4.580068 6.223404 -27.289858 -4.834138 -0.264604 
58.417976 50.129585 95.651527 -7.338628 23.044151 -102.605339 4.247845 -10.502703 9.600011 -24.414377 -2.697612 3.241769 -19.218651 1.504949 1.989995 27.492031 -3.036501 3.760240 -4.148943 -6.307207 -0.011134 -59.625420 -22.102623 10.365494 -52.614494 8.251747 9.216881 8.524705 12.647240 -8.099012 8.203756 10.988382 -1.689603 59.781731 27.415237 45.357792 71.671700 -8.936650 17.925350 -8.534408 -12.637552 70.872902 -22.399456 12.987549 -18.240822 -0.122755 -5.950759 -0.701382 -9.785116 12.002436 -1.377329 -43.480419 -8.702709 22.951052 41.116089 4.576788 6.217705 -27.225441 -4.943352 -0.301414 
58.474300 50.121342 95.394287 -7.033106 22.959072 -102.579025 4.273985 -9.855071 9.596928 -24.365492 -3.011994 3.193926 -19.161728 1.516341 2.061222 27.879776 -3.000516 3.898854 -4.148943 -6.307207 -0.011134 -59.074257 -22.754955 14.018198 -53.814137 8.472288 9.723327 8.524705 12.647240 -10.960340 8.203756 10.988382 -1.689603 60.390511 26.917677 42.061172 69.711548 -9.193469 16.952890 -8.534408 -12.637552 71.175636 -22.345697 13.591919 -18.487686 -0.123728 -5.950557 -0.691644 -9.818450 12.354740 -1.331317 -43.158268 -8.057850 22.875441 41.145805 4.570436 6.227699 -27.177132 -5.073047 -0.353188 
58.527542 50.114128 95.138069 -6.729285 22.883255 -102.557419 4.295932 -9.189623 9.566669 -24.316545 -3.267505 3.137054 -19.086002 1.561012 2.142859 28.217306 -3.081772 4.063457 -4.148943 -6.307207 -0.011134 -58.530472 -23.329651 17.406996 -55.080853 8.682376 10.253540 8.524705 12.647240 -14.075574 8.203756 10.988382 -1.689603 60.895317 26.474989 38.644123 67.694832 -9.366746 15.972329 -8.534408 -12.637552 71.351418 -23.199390 13.915126 -18.848442 1.545386 -5.973220 -0.919452 -10.649981 12.570420 -1.123790 -42.814049 -7.414431 22.843811 41.116089 4.576793 6.217706 -27.140875 -5.182219 -0.403554 
58.580433 50.111382 94.880829 -6.439422 22.815594 -102.537209 4.283352 -8.534555 9.511093 -24.267542 -3.503176 3.069829 -18.953186 1.671525 2.246369 28.506083 -3.252314 4.220319 -4.148943 -6.307207 -0.011134 -57.963726 -23.843943 20.576036 -56.415077 8.880974 10.826035 8.524705 12.647240 -17.151745 8.203756 10.988382 -1.689603 61.297588 26.077309 35.102169 65.624893 -9.454892 14.989378 -8.534408 -12.637552 71.341652 -24.098640 14.198554 -19.210455 3.271827 -5.991872 -1.192107 -11.509808 12.805943 -0.887197 -42.478821 -6.787120 22.803036 41.046993 4.580068 6.212877 -27.092867 -5.310403 -0.431042 
58.632973 50.113789 94.623238 -6.177135 22.774294 -102.521988 4.250314 -7.898379 9.382387 -24.238041 -3.688448 2.985641 -18.782606 1.845021 2.361665 28.754366 -3.552125 4.416008 -4.148943 -6.307207 -0.011134 -57.393192 -24.299349 23.495541 -57.825497 9.056417 11.438313 8.524705 12.647240 -19.915419 8.203756 10.988382 -1.689603 61.580242 25.712181 31.489714 63.546890 -9.454346 14.024114 -8.534408 -12.637552 71.156113 -24.577518 14.589314 -19.525999 4.190749 -6.003578 -1.313997 -12.012466 13.078943 -0.732356 -42.134800 -6.202210 22.790264 40.928497 4.589896 6.196411 -27.043619 -5.428085 -0.497258 
58.683807 50.123402 94.363945 -5.932872 22.741251 -102.500717 4.204403 -7.292186 9.207832 -24.218296 -3.843622 2.892848 -18.575163 2.115161 2.499122 28.962402 -3.982942 4.619670 -4.148943 -6.307207 -0.011134 -56.818020 -24.705620 26.132318 -59.314846 9.213036 12.094909 8.524705 12.647240 -22.141981 8.203756 10.988382 -1.689603 61.741379 25.389122 27.875008 61.479118 -9.378408 13.076358 -8.534408 -12.637552 70.794785 -24.878313 15.008729 -19.831337 4.757463 -5.992606 -1.403817 -12.353662 13.432890 -0.607888 -41.788860 -5.646972 22.752419 40.731361 4.599569 6.172276 -26.972906 -5.565850 -0.530023 
58.731205 50.139542 94.106354 -5.704155 22.736126 -102.477974 4.114294 -6.695415 8.972644 -24.188736 -3.988984 2.779979 -18.330814 2.484584 2.638763 29.149998 -4.502824 4.838121 -4.148943 -6.307207 -0.011134 -56.245949 -25.082958 28.466455 -60.868809 9.333142 12.791267 8.524705 12.647240 -23.850964 8.203756 10.988382 -1.689603 61.765675 25.086109 24.382130 59.444740 -9.232033 12.163575 -8.534408 -12.637552 70.452988 -25.103292 15.438529 -20.146109 5.128381 -6.002020 -1.437507 -12.615318 13.820989 -0.464038 -41.434849 -5.117072 22.727861 40.514225 4.612436 6.148426 -26.921520 -5.699388 -0.571379 
